<svg width="20" height="20" viewBox="0 0 20 20" fill="none" xmlns="http://www.w3.org/2000/svg">
<path d="M0.283203 1.66873C-0.0917969 1.29373 -0.0917969 0.669606 0.283203 0.281494C0.671315 -0.0935059 1.28233 -0.0935059 1.67044 0.281494L9.99474 8.61978L18.333 0.281494C18.708 -0.0935059 19.3322 -0.0935059 19.7063 0.281494C20.0944 0.669606 20.0944 1.29461 19.7063 1.66873L11.382 9.99391L19.7063 18.3322C20.0944 18.7072 20.0944 19.3313 19.7063 19.7194C19.3313 20.0944 18.7072 20.0944 18.333 19.7194L9.99474 11.3811L1.67044 19.7194C1.28233 20.0944 0.671315 20.0944 0.283203 19.7194C-0.0917969 19.3313 -0.0917969 18.7063 0.283203 18.3322L8.6075 9.99391L0.283203 1.66873Z" fill="black"/>
</svg>
